<?xml version="1.0" encoding="UTF-8"?>
<svg version="1.1" xmlns="http://www.w3.org/2000/svg" width="16" height="16">
<path d="M0 0 C5.28 0 10.56 0 16 0 C16 5.28 16 10.56 16 16 C10.72 16 5.44 16 0 16 C0 10.72 0 5.44 0 0 Z " fill="#000000" transform="translate(0,0)"/>
<path d="M0 0 C2.97 0 5.94 0 9 0 C9.66 1.65 10.32 3.3 11 5 C9.35 6.32 7.7 7.64 6 9 C5.34 8.34 4.68 7.68 4 7 C3.67 8.98 3.34 10.96 3 13 C1.35 11.68 -0.3 10.36 -2 9 C-1.34 6.03 -0.68 3.06 0 0 Z " fill="#FFCECE" transform="translate(4,2)"/>
<path d="M0 0 C0.33 1.32 0.66 2.64 1 4 C-0.65 5.32 -2.3 6.64 -4 8 C-4.99 6.35 -5.98 4.7 -7 3 C-2.25 0 -2.25 0 0 0 Z " fill="#4848FF" transform="translate(14,3)"/>
<path d="M0 0 C0.99 0 1.98 0 3 0 C3 2.64 3 5.28 3 8 C1.68 7.34 0.36 6.68 -1 6 C-0.67 4.02 -0.34 2.04 0 0 Z " fill="#51FF51" transform="translate(3,5)"/>
</svg>
